# xmcd
#
# Track frame offsets:
#	150
#	18451
#	36528
#	53399
#	67081
#	83486
#	94452
#	112192
#	130273
#	149494
#	167251
#	184090
#	202340
#	218380
#	232549
#	249203
#	276458
#
# Disc length: 3694 seconds
#
# Revision: 1
# Processed by: cddbd v1.5.2PL0 Copyright (c) Steve Scherf et al.
# Submitted via: audiograbber 1.83.01
#
DISCID=f00e6c11
DTITLE=VAROIUS - MIXED COUNTRY FUNPACK disc 1
DYEAR=1900
DGENRE=
TTITLE0=JENNIFER HANSON - BEAUTIFUL GOODBYE
TTITLE1=KENNY CHESNEY - BIG STAR
TTITLE2=BRAD PAISLEY - CELEBRITY
TTITLE3=JOE NICHOLS - COOL TO BE A FOOL
TTITLE4=TOBY KEITH - COURTESY OF THE RED, WHITE, AND BLUE
TTITLE5=TRACY BYRD - DRINKIN BONE
TTITLE6=ALAN JACKSON/JIMMY BUFFETT - FIVE O'CLOCK SOMEWHERE
TTITLE7=DARRYL WORLEY - HAVE YOU FORGOTTEN?
TTITLE8=MONTGOMERY GENTRY - HELL YEAH
TTITLE9=BUDDY JEWEL - HELP POUR OUT THE RAIN
TTITLE10=JOHNNY CASH - HURT
TTITLE11=TOBY KEITH - I LOVE THIS BAR
TTITLE12=REBA MCENTIRE - I'M GONNA TAKE THAT MOUNTAIN
TTITLE13=RASCAL FLATTS - LOVE YOU OUT LOUD
TTITLE14=PATTY LOVELESS - LOVIN ALL NIGHT
TTITLE15=KENNY CHESNEY - NO SHOES, NO SHIRT, NO PROBLEM
TTITLE16=data track - Data Track
EXTD=TTFP-81&82-v3\nvolume 2
EXTT0=
EXTT1=
EXTT2=
EXTT3=
EXTT4=
EXTT5=
EXTT6=
EXTT7=
EXTT8=
EXTT9=
EXTT10=
EXTT11=
EXTT12=
EXTT13=
EXTT14=
EXTT15=
EXTT16=
PLAYORDER=
